**ABCDEFGHIJKLMNOPQRSTUVWXYZabcdefghijklmnopqrstuvwxyz**************************
**PARASOLID !"#$%&'()*+,-./:;<=>?@[\]^_`{|}~0123456789**************************
**PART1;
MC=unknown;
MC_MODEL=unknown;
MC_ID=unknown;
OS=unknown;
OS_RELEASE=unknown;
FRU=Parasolid 37.1.212;
APPL=Onshape;
SITE=unknown;
USER=unknown;
FORMAT=text;
GUISE=transmit;
KEY=BTGapi::writeModels_.xmt;
FILE=BTGapi::writeModels_.xmt;
DATE=2025-12-09T06:45:07 (UTC);
**PART2;
SCH=SCH_3701212_37102;
USFLD_SIZE=0;
**PART3;
**END_OF_HEADER*****************************************************************
T51 : TRANSMIT FILE created by modeller version 370121223 SCH_3701212_37102_1300
6239 0 176 6 14 PART_XMT_BLOCK9 Part list9 n_entries0 0 1 d16 index_map_offset0
 0 1 d9 index_map82 0 20 schema_embedding_map82 0 16 mesh_offset_data206 0 7 ent
ries1005 1 T5 1 5 0 0 0 0 2 3 4 5 6 12 36 CCCI7 lattice222 0 CCCI4 mesh1006 0 I8
 polyline1008 0 CCCCCCCDI5 owner1040 0 CCCI16 boundary_lattice222 0 CCCI13 bound
ary_mesh1006 0 I17 boundary_polyline1008 0 CCCA16 index_map_offset0 0 1 dA9 inde
x_map82 0 A17 node_id_index_map82 0 A20 schema_embedding_map82 0 A5 child12 0 A1
4 lowest_node_id0 0 1 dA16 mesh_offset_data206 0 Z2 28 7 8 0 0 0 0 0 0 0 1e3 1e-
8 0 6 4 1 0 3 2 9 0 10 11 0 0 0 12 13 0 0 0 0 0 0 0 0 12 3 28 14 15 0 0 0 0 0 0
 0 1e3 1e-8 0 5 6 1 0 3 2 16 0 17 18 0 0 0 19 20 0 0 0 0 0 0 0 0 12 4 1882 21 22
 0 0 0 0 0 0 0 1e3 1e-8 0 2 23 1 0 1 2 24 0 25 27 30 0 0 29 26 28 0 0 0 0 0 0 0
 12 5 43 34 35 0 0 0 0 0 0 0 1e3 1e-8 0 32 3 1 0 3 2 33 0 31 38 0 0 0 40 36 0 0
 0 0 0 0 0 0 12 6 28 39 37 0 0 0 0 0 0 0 1e3 1e-8 0 3 2 1 0 3 2 41 0 45 43 0 0 0
 42 44 0 0 0 0 0 0 0 0 81 255 1 39 27 46 6 50 0 0 0 48 70 11 CI9 list_type0 0 1
 uI10 notransmit0 0 1 lCCCDCCDI12 finger_index0 0 1 dI12 finger_block1012 0 CZ37
 0 4 T6 0 0 5 20 1 47 47 13 255 41 2 0 6 0 49 0 0 42 49 51 255 45 18 0 49 0 0 0
 +.19714 .05845 .0031 0 0 1 .003 1 0 0 31 255 43 13 0 44 51 0 0 +.19714 .05845 .
013 0 0 1 1 0 0 .003 19 9 CCCCCCI5 frame230 0 CA5 owner12 0 Z42 1 0 6 0 0 41 0 V
0 16 255 44 9 55 ?52 0 53 43 0 0 6 81 1 55 22 54 44 0 0 57 60 59 17 255 52 0 0 0
 0 0 56 44 0 0 +16 53 3 57 ?58 44 0 51 0 0 6 81 1 57 21 54 53 0 0 0 55 61 17 58
 0 62 58 58 0 64 53 0 0 +31 51 6 0 53 0 43 0 +.19714 .05845 .0031 0 0 1 1 0 0 .0
03 15 255 62 14 0 58 49 63 17 64 0 0 0 0 0 58 53 0 0 -14 255 49 15 65 ?0 0 62 41
 45 +0 0 0 0 41 15 63 16 0 56 49 0 17 56 0 63 56 56 0 52 44 0 0 -81 1 65 28 68 4
9 60 0 0 0 67 80 7 CCCCCDI12 legal_owners0 17 1 lCZ1 68 0 66 8001 0 0 0 0 3 5 0
 0 0 FFFFTFTFFFFFFFFFF2 81 1 60 23 54 49 0 65 55 70 69 83 255 3 67 .231372549019
608 .380392156862745 .705882352941177 80 1 54 75 72 9000 0 0 0 0 3 6 0 0 0 FFTFT
FTTFFFFFFFFF1 81 1 70 24 54 6 0 73 60 0 71 82 255 3 69 6 2 2 81 1 73 25 74 6 70
 50 0 0 79 82 3 71 6 2 3 80 1 74 80 77 8038 0 0 0 0 0 0 0 0 0 TTTTTTTTTTTTTFTFT1
0 81 1 50 26 80 6 73 39 0 0 78 98 255 9 79 83 117 114 102 97 99 101 32 51 80 1 8
0 76 83 8017 0 0 0 0 0 0 0 0 0 TTTTTTTTTTTTTFTFT3 84 255 9 78 Surface 379 255 13
 83 SDL/TYSA_NAME79 14 77 SDL/TYSA_UNAME79 9 72 BTI/DetId79 15 66 SDL/TYSA_COLOU
R82 3 61 6 4 1 82 3 59 6 5 1 74 4 CI16 index_map_offset0 0 1 dCCZ20 47 5 0 0 70
 73 50 39 65 0 0 0 0 0 0 0 0 0 0 0 0 0 0 0 80 1 46 68 85 8040 0 0 0 0 3 5 0 0 0
 TTTFFFFFFFFFFFFFF2 83 3 48 .231372549019608 .380392156862745 .705882352941177 7
9 17 85 SDL/TYSA_COLOUR_281 1 34 42 46 5 81 0 0 0 84 70 35 0 4 T5 0 0 5 20 1 82
 82 13 33 12 0 5 0 86 0 0 40 86 51 31 33 0 86 0 0 0 +-.005 .05845 .0031 0 0 1 .0
03 1 0 0 31 38 28 0 36 90 0 0 +-.005 .05845 .013 0 0 1 1 0 0 .003 19 40 1 0 5 0
 0 33 0 V0 16 36 24 88 ?87 0 89 38 0 0 5 81 1 88 37 54 36 0 0 91 95 93 17 87 0 0
 0 0 0 92 36 0 0 +16 89 11 91 ?94 36 0 90 0 0 5 81 1 91 36 54 89 0 0 0 88 96 17
 94 0 100 94 94 0 97 89 0 0 +31 90 13 0 89 0 38 0 +-.005 .05845 .0031 0 0 1 1 0
 0 .003 15 100 29 0 94 86 98 17 97 0 0 0 0 0 94 89 0 0 -14 86 30 99 ?0 0 100 33
 31 +0 0 0 0 33 15 98 31 0 92 86 0 17 92 0 98 92 92 0 87 36 0 0 -81 1 99 43 68 8
6 95 0 0 0 102 81 1 95 38 54 86 0 99 88 105 104 83 3 102 .615686274509804 .81176
4705882353 .929411764705882 81 1 105 39 54 5 0 101 95 0 103 82 3 104 6 0 2 81 1
 101 40 74 5 105 81 0 0 106 82 3 103 6 0 3 81 1 81 41 80 5 101 34 0 0 107 98 9 1
06 83 117 114 102 97 99 101 32 49 84 9 107 Surface 182 3 96 6 0 1 82 3 93 6 1 1
 74 20 82 5 0 0 105 101 81 34 99 0 0 0 0 0 0 0 0 0 0 0 0 0 0 0 83 3 84 .61568627
4509804 .811764705882353 .929411764705882 81 1 21 1840 46 4 109 0 0 0 108 70 22
 0 4 T4 0 0 5 20 1 110 110 13 24 350 0 4 0 113 0 0 112 0 51 25 1724 0 111 115 0
 0 +.060318 .0584505 .011 0 1 0 .002 0 0 1 31 27 1731 0 114 120 0 0 +.060318 .06
145 .011 0 1 0 0 0 1 .002 29 255 30 1645 0 28 117 0 .062318 .06145 .011 19 29 11
3 0 4 112 0 118 0 V0 16 26 1657 116 ?119 0 124 125 0 0 4 18 255 28 1643 122 123
 0 121 30 ?4 81 1 122 1787 54 28 0 0 128 130 126 17 123 0 129 127 131 28 135 133
 0 132 +18 121 1639 134 119 28 136 117 ?4 81 1 134 1779 54 121 0 0 140 138 137 1
7 119 0 139 141 145 121 142 26 0 131 +18 136 1628 143 144 121 147 150 ?4 29 117
 1642 0 121 150 30 .062318 .06145 .0055 29 150 1630 0 136 149 117 .082818 .06345
 .0035 29 149 1627 0 147 146 150 .060318 .06345 .0035 18 147 1625 148 151 136 15
2 149 ?4 29 146 1624 0 152 154 149 .060318 .06345 .011 18 152 1621 153 155 147 1
58 146 ?4 29 154 1615 0 158 157 146 .082818 .06345 .011 18 158 1612 156 160 152
 159 154 ?4 29 157 1605 0 159 165 154 .080818 .06145 .011 18 159 1603 162 163 15
8 161 157 ?4 29 165 1602 0 161 164 157 .080818 .06145 .0055 18 161 1599 138 169
 159 170 165 ?4 29 164 1588 0 170 167 165 .080818 .053451 .011 18 170 1585 168 1
66 161 173 164 ?4 29 167 1584 0 173 175 164 .062318 .053451 .011 18 173 1581 171
 127 170 174 167 ?4 29 175 1570 0 174 172 167 .060318 .06145 .013 18 174 1567 13
0 176 173 180 175 ?4 29 172 1566 0 180 178 175 .060318 .053451 .013 18 180 1563
 177 179 174 181 172 ?4 29 178 1562 0 181 185 172 .082818 .053451 .013 18 181 15
59 128 183 180 182 178 ?4 29 185 1558 0 182 184 178 .082818 .06145 .013 18 182 1
555 186 190 181 187 185 ?4 29 184 1187 0 187 188 185 -.01 .06145 .011 18 187 118
5 189 192 182 195 184 ?4 29 188 1183 0 195 194 184 -.01 -.008 .011 18 195 1181 1
91 193 187 196 188 ?4 29 194 1169 0 196 197 188 .20014 .06345 .011 18 196 1167 1
99 198 195 200 194 ?4 29 197 1160 0 200 203 194 -.008 .06345 .011 18 200 1158 20
2 201 196 205 197 ?4 29 203 1138 0 205 204 197 .20014 .06145 .013 18 205 1136 21
0 207 200 208 203 ?4 29 204 1120 0 208 206 203 -.008 .06145 .013 18 208 1118 209
 214 205 215 204 ?4 29 206 1109 0 215 212 204 -.008 -.008 .013 18 215 1107 213 2
11 208 218 206 ?4 29 212 1103 0 218 220 206 .20014 -.008 .013 18 218 1101 216 21
9 215 217 212 ?4 29 220 1100 0 217 221 212 .19714 -.008 .013 18 217 1097 225 223
 218 222 220 ?4 29 221 1096 0 222 224 220 .20014 -.005 .013 18 222 1095 226 230
 217 228 221 ?4 29 224 1094 0 228 227 221 .19714 .06145 .013 18 228 1091 229 231
 222 235 224 ?4 29 227 1090 0 235 232 224 .20014 .05845 .013 18 235 1089 233 234
 228 237 227 ?4 29 232 1088 0 237 240 227 -.005 -.008 .013 18 237 1085 239 236 2
35 238 232 ?4 29 240 1084 0 238 241 232 -.008 -.005 .013 18 238 1083 242 244 237
 243 240 ?4 29 241 1082 0 243 245 240 -.008 .05845 .013 18 243 1079 248 247 238
 246 241 ?4 29 245 1078 0 246 250 241 -.005 .06145 .013 18 246 1077 249 255 243
 252 245 ?4 29 250 1062 0 252 253 245 .20014 -.01 .011 18 252 1060 251 254 246 2
59 250 ?4 29 253 1058 0 259 260 250 -.008 -.01 .011 18 259 1056 257 258 252 256
 253 ?4 29 260 1035 0 256 263 253 .20014 -.01 0 18 256 1032 265 261 259 264 260
 ?4 29 263 1031 0 264 262 260 -.008 -.01 0 18 264 1028 266 270 256 268 263 ?4 29
 262 1027 0 268 267 263 .20014 .06345 0 18 268 1024 269 271 264 275 262 ?4 29 26
7 1023 0 275 273 262 -.008 .06345 0 18 275 1020 272 274 268 276 267 ?4 29 273 10
19 0 276 280 267 -.01 .06145 0 18 276 1016 277 278 275 279 273 ?4 29 280 1015 0
 279 282 273 -.01 -.008 0 18 279 1012 285 284 276 281 280 ?4 29 282 1005 0 281 2
83 280 .20214 -.008 .011 18 281 1003 286 287 279 289 282 ?4 29 283 1001 0 289 28
8 282 .20214 .06145 .011 18 289 999 290 293 281 292 283 ?4 29 288 998 0 292 291
 283 .20214 .06145 0 18 292 995 295 294 289 300 288 ?4 29 291 994 0 300 297 288
 .20214 -.008 0 18 300 991 298 296 292 299 291 ?4 29 297 490 0 299 304 291 0 0 .
003 18 299 486 305 302 300 303 297 ?4 29 304 480 0 303 301 297 -1387778780781446
e-32 .053451 .003 18 303 476 308 310 299 306 304 ?4 29 301 465 0 306 309 304 .19
2135 0 .003 18 306 461 307 311 303 315 301 ?4 29 309 109 0 315 313 301 .192135 0
 .013 18 315 107 312 314 306 316 309 ?4 29 313 104 0 316 320 309 .192135 .053451
 .013 18 316 102 318 317 315 319 313 ?4 29 320 99 0 319 321 313 -138777878078144
6e-32 .053451 .013 18 319 97 325 322 316 323 320 ?4 29 321 94 0 323 324 320 0 0
 .013 18 323 92 327 330 319 329 321 ?4 29 324 652 0 329 326 321 .192135 .053451
 .003 18 329 601 328 331 323 332 324 ?4 29 326 949 0 332 334 324 .080818 .053451
 .0055 18 332 896 333 335 329 338 326 ?4 29 334 950 0 338 0 326 .062318 .053451
 .0055 18 338 892 337 141 332 0 334 ?4 81 1 337 959 54 338 0 0 336 333 340 17 14
1 0 139 339 119 338 131 345 0 342 +15 139 919 0 145 343 0 17 339 0 139 145 141 3
32 341 344 0 349 +17 131 0 129 123 342 121 141 345 0 135 -16 345 1640 350 ?141 3
44 347 348 0 0 4 17 342 0 129 131 127 338 346 353 0 341 -15 129 907 0 123 355 0
 17 127 0 129 342 123 173 132 351 0 346 +17 346 0 354 179 341 173 342 353 0 352
 +16 353 841 356 ?346 360 358 357 0 0 4 17 341 0 354 346 349 338 339 344 0 0 -15
 354 789 0 359 361 0 17 349 0 354 341 166 332 365 358 0 0 -16 344 846 363 ?339 3
62 345 364 0 0 4 81 1 363 967 54 344 0 0 333 257 366 16 362 1600 370 ?335 358 34
4 367 0 0 4 30 255 364 941 0 344 348 367 0 +.0960675 .053451 .0055 1 0 0 30 348
 942 0 345 0 364 0 +.062318 .0584505 .0055 0 -1 0 30 367 940 0 362 364 368 0 +.0
80818 .0584505 .0055 0 -1 0 30 368 934 0 358 367 357 0 +.080818 .053451 .0055 0
 0 1 16 358 851 369 ?365 353 362 368 0 0 4 30 357 933 0 353 368 372 0 +.062318 .
053451 .0055 0 0 1 30 372 646 0 360 357 375 0 +0 .0267255 .003 0 1 0 16 360 527
 374 ?310 371 353 372 0 0 4 30 375 645 0 371 372 373 0 +.0960675 0 .003 1 0 0 16
 371 567 376 ?377 379 360 375 0 0 4 30 373 644 0 379 375 378 0 +.192135 .0267255
 .003 0 1 0 16 379 572 380 ?383 382 371 373 0 0 4 30 378 643 0 382 373 381 0 +.0
960675 .053451 .003 1 0 0 16 382 557 385 ?384 390 379 378 0 0 4 31 381 34 0 387
 378 388 0 +-.005 .05845 .013 0 0 1 1 0 0 .003 16 387 32 386 ?389 394 395 381 39
5 395 4 31 388 39 0 392 381 393 0 +-.005 -.005 .013 0 0 1 1 0 0 .003 16 392 37 3
91 ?398 400 394 388 394 394 4 31 393 44 0 396 388 399 0 +.19714 .05845 .013 0 0
 1 1 0 0 .003 16 396 42 397 ?401 405 400 393 400 400 4 31 399 49 0 403 393 402 0
 +.19714 -.005 .013 0 0 1 1 0 0 .003 16 403 47 140 ?404 406 405 399 405 405 4 30
 402 54 0 406 399 410 0 +.0960675 0 .013 1 0 0 16 406 52 408 ?407 409 403 402 0
 0 4 30 410 59 0 409 402 411 0 +0 .0267255 .013 0 1 0 16 409 57 415 ?412 413 406
 410 0 0 4 30 411 64 0 414 410 417 0 +.0960675 .053451 .013 1 0 0 16 414 62 420
 ?419 416 413 411 413 413 4 30 417 69 0 416 411 418 0 +.192135 .0267255 .013 0 1
 0 16 416 67 421 ?422 424 414 417 0 0 4 30 418 281 0 390 417 423 0 +-.01 .026725
 0 -1889419715155135e-31 1 0 16 390 1013 425 ?428 427 382 418 0 0 4 30 423 280 0
 427 418 426 0 +.09607 -.01 0 1 0 0 16 427 1029 430 ?429 435 390 423 0 0 4 30 42
6 279 0 435 423 432 0 +.20214 .026725 0 0 1 0 16 435 992 433 ?431 434 427 426 0
 0 4 30 432 278 0 434 426 439 0 +.09607 .06345 0 1 0 0 16 434 1021 440 ?437 438
 435 432 0 0 4 31 439 277 0 438 432 436 0 +-.005 .05845 0 0 0 1 1 0 0 .003 16 43
8 217 443 ?445 441 434 439 0 0 4 31 436 276 0 441 439 444 0 +-.005 -.005 0 0 0 1
 1 0 0 .003 16 441 213 442 ?446 450 438 436 0 0 4 31 444 275 0 450 436 448 0 +.1
9714 .05845 0 0 0 1 1 0 0 .003 16 450 209 447 ?449 451 441 444 0 0 4 31 448 274
 0 451 444 455 0 +.19714 -.005 0 0 0 1 1 0 0 .003 16 451 205 453 ?452 395 450 44
8 0 0 4 30 455 342 0 424 448 454 0 +.192135 0 .013 0 0 -1 16 424 290 456 ?460 45
7 416 455 0 0 4 30 454 343 0 457 455 458 0 +.192135 .053451 .013 0 0 -1 16 457 2
91 459 ?331 462 424 454 0 0 4 30 458 344 0 462 454 465 0 +-1387778780781446e-32
 .053451 .013 0 0 -1 16 462 292 464 ?461 463 457 458 0 0 4 30 465 345 0 463 458
 466 0 +0 0 .013 0 0 -1 16 463 293 467 ?469 468 462 465 0 0 4 30 466 1002 0 468
 465 470 0 -.20214 .06145 .013 0 0 -1 16 468 1000 473 ?293 472 463 466 0 0 4 30
 470 1006 0 472 466 471 0 -.20214 -.01 .011 0 1 0 16 472 1004 475 ?287 474 468 4
70 0 0 4 30 471 1009 0 474 470 480 0 +.20214 -.008 .013 0 0 -1 16 474 1007 477 ?
478 476 472 471 0 0 4 31 480 1038 0 476 471 479 0 --.008 -.008 0 0 0 1 1 0 0 .00
2 16 476 1036 484 ?284 485 474 480 0 0 4 31 479 1043 0 485 480 482 0 --.008 .061
45 0 0 0 1 1 0 0 .002 16 485 1041 483 ?274 481 476 479 0 0 4 31 482 1048 0 481 4
79 488 0 -.20014 .06145 0 0 0 1 1 0 0 .002 16 481 1046 490 ?294 486 485 482 0 0
 4 31 488 1053 0 486 482 489 0 -.20014 -.008 0 0 0 1 1 0 0 .002 16 486 1051 487
 ?261 491 481 488 0 0 4 30 489 1059 0 491 488 495 0 +-.008 -.01 0 0 0 -1 16 491
 1057 493 ?270 492 486 489 0 0 4 30 495 1063 0 492 489 494 0 --.01 -.01 .011 1 0
 0 16 492 1061 496 ?258 500 491 495 0 0 4 30 494 1066 0 500 495 498 0 -.20014 -.
01 .013 0 0 -1 16 500 1064 497 ?254 499 492 494 0 0 4 30 498 1104 0 499 494 501
 0 +.20214 -.008 .013 1 0 0 16 499 1102 505 ?219 502 500 498 0 0 4 30 501 1106 0
 502 498 503 0 +.20214 -.008 .013 1 0 0 16 502 1105 504 ?223 507 499 501 0 0 4 3
0 503 1110 0 507 501 510 0 +.20214 -.008 .013 1 0 0 16 507 1108 509 ?236 506 502
 503 0 0 4 30 510 1113 0 506 503 508 0 --.008 .026725 .013 -1889419715155135e-31
 1 0 16 506 1111 511 ?211 512 507 510 0 0 4 30 508 1117 0 512 510 514 0 --.008 .
026725 .013 -1889419715155135e-31 1 0 16 512 1116 513 ?244 515 506 508 0 0 4 30
 514 1121 0 515 508 518 0 --.008 .026725 .013 -1889419715155135e-31 1 0 16 515 1
119 517 ?247 516 512 514 0 0 4 30 518 1124 0 516 514 520 0 -.09607 .06145 .013 1
 0 0 16 516 1122 519 ?214 525 515 518 0 0 4 30 520 1128 0 525 518 522 0 -.09607
 .06145 .013 1 0 0 16 525 1568 523 ?255 521 516 520 0 0 4 30 522 1131 0 521 520
 524 0 +.20014 .06345 .013 0 1 0 16 521 1129 529 ?230 530 525 522 0 0 4 30 524 1
135 0 530 522 527 0 +.20014 .06345 .013 0 1 0 16 530 1134 528 ?234 526 521 524 0
 0 4 30 527 1139 0 526 524 533 0 +.20014 .06345 .013 0 1 0 16 526 1137 535 ?207
 531 530 527 0 0 4 30 533 1142 0 531 527 534 0 -.09607 .06145 .013 1 0 0 16 531
 1140 532 ?231 536 526 533 0 0 4 30 534 1147 0 536 533 540 0 -.09607 .06145 .013
 1 0 0 16 536 1145 538 ?537 539 531 534 0 0 4 30 540 1161 0 539 534 541 0 +.0960
7 .06345 .011 1 0 0 16 539 1159 545 ?543 542 536 540 0 0 4 30 541 1164 0 542 540
 544 0 --.008 .06345 .013 0 0 -1 16 542 1162 546 ?201 550 539 541 0 0 4 30 544 1
170 0 550 541 547 0 +.09607 .06345 .011 1 0 0 16 550 1613 548 ?198 549 542 544 0
 0 4 30 547 1173 0 549 544 552 0 +.20014 .06345 0 0 0 -1 16 549 1171 555 ?271 55
4 550 547 0 0 4 30 552 1184 0 554 547 551 0 --.01 -.008 .013 0 0 -1 16 554 1182
 553 ?193 556 549 552 0 0 4 30 551 1188 0 556 552 557 0 +-.01 .026725 .011 -1889
419715155135e-31 1 0 16 556 1186 559 ?192 558 554 551 0 0 4 30 557 1191 0 558 55
1 560 0 +-.01 .06145 .013 0 0 -1 16 558 1189 563 ?278 562 556 557 0 0 4 31 560 1
340 0 561 557 565 0 -.20014 -.008 .011 0 0 1 1 0 0 .002 16 561 1281 564 ?570 567
 114 560 0 0 4 31 565 1339 0 567 560 568 0 +.20014 -.008 .011 0 -1 0 0 0 -1 .002
 16 567 1279 566 ?569 574 561 565 0 0 4 31 568 1338 0 574 565 575 0 +.20014 -.00
8 .011 1 0 0 0 0 -1 .002 16 574 1278 572 ?573 571 567 568 0 0 4 31 575 1337 0 57
1 568 578 0 -.20014 .06145 .011 0 1 0 0 0 1 .002 16 571 1276 580 ?576 579 574 57
5 0 0 4 31 578 1336 0 579 575 577 0 --.008 -.008 .011 -1 0 433680868994202e-29 4
33680868994202e-29 0 1 .002 16 579 1269 581 ?585 583 571 578 0 0 4 31 577 1335 0
 583 578 582 0 +.20014 .06145 .011 0 0 1 1 0 0 .002 16 583 1267 584 ?586 590 579
 577 0 0 4 31 582 1334 0 590 577 588 0 +.20014 .06145 .011 1 0 0 0 0 -1 .002 16
 590 1266 587 ?589 591 583 582 0 0 4 31 588 1333 0 591 582 595 0 +-.008 -.008 .0
11 -1734723475976805e-30 -1 0 1 -1734723475976805e-30 0 .002 16 591 1265 592 ?59
3 594 590 588 0 0 4 31 595 1332 0 594 588 597 0 +-.008 -.008 .011 0 0 1 1 0 0 .0
02 16 594 1264 600 ?599 596 591 595 0 0 4 31 597 1331 0 596 595 598 0 --.008 .06
145 .011 0 1 0 0 0 1 .002 16 596 1253 601 ?602 604 594 597 0 0 4 31 598 1330 0 6
04 597 603 0 +-.008 .06145 .011 -1 0 0 0 0 1 .002 16 604 1248 605 ?608 347 596 5
98 0 0 4 31 603 1329 0 347 598 607 0 +-.008 .06145 .011 0 0 1 1 0 0 .002 16 347
 1247 606 ?610 345 604 603 0 0 4 30 607 1573 0 562 603 609 0 -.060318 .06145 .01
3 0 -1 0 16 562 1571 615 ?176 612 558 607 0 0 4 30 609 1578 0 612 607 613 0 +.08
2818 .026725 .013 0 -1 0 16 612 1576 611 ?614 619 562 609 0 0 4 31 613 1591 0 61
9 609 620 0 -.060318 .053451 .011 0 1 0 0 0 1 .002 16 619 1589 617 ?179 618 612
 613 0 0 4 31 620 1596 0 618 613 616 0 -.082818 .053451 .011 0 1 0 0 0 1 .002 16
 618 1594 623 ?166 625 619 620 0 0 4 30 616 1606 0 625 620 621 0 -.080818 .06145
 .0055 0 0 1 16 625 1604 624 ?169 622 618 616 0 0 4 30 621 1609 0 622 616 626 0
 -.080818 .0584505 .011 0 -1 0 16 622 1607 630 ?163 628 625 621 0 0 4 31 626 161
8 0 628 621 627 0 +.082818 .06145 .011 1 0 0 0 0 -1 .002 16 628 1616 629 ?190 63
1 622 626 0 0 4 30 627 1631 0 631 626 635 0 +.09607 .06345 .0035 1 0 0 16 631 16
29 633 ?144 632 628 627 0 0 4 30 635 1633 0 632 627 634 0 -.060318 .06345 .0055
 0 0 1 16 632 1632 636 ?151 640 631 635 0 0 4 30 634 1636 0 640 635 637 0 +.0828
18 .06345 .013 0 0 1 16 640 1634 638 ?160 133 632 634 0 0 4 30 637 1646 0 133 63
4 639 0 +.062318 .06145 .011 0 0 1 16 133 1644 642 ?123 351 640 637 0 0 4 30 639
 1649 0 351 637 645 0 +.062318 .053451 .011 0 -1 0 16 351 1647 644 ?127 124 133
 639 0 0 4 31 645 1654 0 124 639 125 0 -.060318 .06145 .011 1 0 0 0 0 -1 .002 16
 124 1652 641 ?155 26 351 645 0 0 4 30 125 1659 0 26 645 643 0 -.09607 .06145 .0
055 1 0 0 31 643 1736 0 646 125 647 0 +.082818 .06145 .011 0 -1 0 0 0 -1 .002 16
 646 1707 649 ?648 650 0 643 0 0 4 31 647 1735 0 650 643 653 0 +.082818 .06145 .
011 0 0 1 1 0 0 .002 16 650 1704 652 ?651 655 646 647 0 0 4 32 255 653 1734 0 65
5 647 654 0 +.082818 .06145 .0035 .707106781186548 0 .707106781186548 -.70710678
1186548 0 .707106781186548 .00282842712474619 .002 16 655 1702 660 ?657 658 650
 653 0 0 4 32 654 1733 0 658 653 120 0 +.060318 .06145 .0035 .707106781186548 0
 -.707106781186548 -.707106781186548 0 -.707106781186548 .00282842712474619 .002
 16 658 1699 656 ?659 664 655 654 0 0 4 31 120 1732 0 664 654 27 0 +.060318 .061
45 .011 0 0 -1 -1 0 0 .002 16 664 1696 665 ?662 114 658 120 0 0 4 81 1 665 1800
 54 664 0 0 663 641 661 17 662 0 668 135 670 28 666 664 0 0 +16 114 1693 663 ?66
9 561 664 27 0 0 4 81 1 663 1799 54 114 0 0 623 665 667 17 669 0 671 666 675 28
 673 114 0 662 +15 671 1677 0 675 672 0 17 666 0 671 675 669 152 662 664 0 670 -
17 675 0 671 669 666 174 155 124 0 0 -17 673 0 674 676 132 174 669 114 0 675 -15
 674 1675 0 673 111 0 17 676 0 674 352 673 180 176 562 0 0 -17 132 0 674 673 352
 28 127 351 0 669 -17 352 0 674 132 676 173 179 619 0 0 -17 179 0 354 322 346 18
0 352 619 0 419 +17 322 0 354 461 179 319 419 414 0 412 -17 419 0 680 176 412 18
0 322 414 0 676 +15 680 1141 0 537 113 0 17 176 0 680 255 419 174 676 562 0 678
 +17 412 0 680 419 677 319 679 409 0 681 +17 677 0 680 412 685 323 407 406 0 0 -
17 679 0 682 469 681 323 412 409 0 677 -17 681 0 682 679 310 319 461 462 0 0 -15
 682 302 0 469 683 0 17 310 0 682 681 469 303 684 360 0 461 +17 461 0 354 384 32
2 303 681 462 0 687 +17 384 0 354 690 461 329 687 382 0 383 +17 687 0 689 684 38
3 303 384 382 0 0 -15 689 622 0 684 686 0 17 684 0 689 377 687 299 310 360 0 0 -
17 383 0 689 687 377 329 311 379 0 0 +17 377 0 689 383 684 306 302 371 0 0 +17 3
11 0 688 314 331 306 383 379 0 460 -15 688 472 0 311 691 0 17 314 0 688 422 311
 315 460 424 0 407 -17 331 0 688 311 422 329 690 457 0 384 +17 460 0 692 302 407
 306 314 424 0 377 +15 692 497 0 302 694 0 17 302 0 692 330 460 299 377 371 0 46
9 -17 407 0 692 460 330 315 677 406 0 685 +17 330 0 692 407 302 323 469 463 0 67
9 -17 685 0 680 677 317 315 422 416 0 0 -17 317 0 680 685 614 316 359 413 0 690
 +17 422 0 688 331 314 316 685 416 0 0 +17 614 0 680 317 537 181 693 612 0 359 +
17 359 0 354 166 690 181 317 413 0 0 -16 413 1560 695 ?317 414 409 411 414 414 4
 17 690 0 354 359 384 316 331 457 0 422 -81 1 695 1818 54 413 0 0 420 545 698 81
 1 420 1817 54 414 0 0 370 695 697 81 1 545 1819 54 539 0 0 695 548 696 82 3 698
 15 25 1 81 1 548 1820 54 550 0 0 545 523 700 82 3 696 15 26 1 81 1 523 1821 54
 525 0 0 548 538 699 82 3 700 15 27 1 81 1 538 1822 54 536 0 0 523 705 702 82 3
 699 15 28 1 81 1 705 1823 54 703 0 701 538 704 709 82 3 702 15 29 1 14 703 1680
 701 ?710 707 708 24 706 +0 0 710 707 118 81 1 701 1879 68 703 705 0 713 715 711
 81 1 704 1824 54 672 0 714 705 712 716 82 3 709 15 0 2 14 672 1676 714 ?707 111
 671 24 115 +0 0 707 111 118 81 1 714 1877 68 672 704 0 720 713 718 81 1 712 182
5 54 717 0 719 704 721 725 82 3 716 15 1 2 14 717 1684 719 ?723 710 722 24 724 +
0 0 723 710 118 81 1 719 1881 68 717 712 0 715 726 730 81 1 721 1826 54 111 0 72
0 712 727 728 82 3 725 15 2 2 14 111 1674 720 ?672 729 674 24 25 +0 0 672 729 11
8 81 1 720 1876 68 111 721 0 732 714 735 81 1 727 1827 54 723 0 726 721 734 731
 82 3 728 15 3 2 14 723 1686 726 ?0 717 733 24 736 +0 0 0 717 118 81 1 726 1882
 68 723 727 0 719 0 737 81 1 734 1828 54 707 0 713 727 739 738 82 3 731 15 4 2 1
4 707 1678 713 ?703 672 668 24 740 +0 0 703 672 118 81 1 713 1878 68 707 734 0 7
14 701 743 81 1 739 1829 54 710 0 715 734 742 741 82 3 738 15 5 2 14 710 1682 71
5 ?717 703 745 24 744 +0 0 717 703 118 81 1 715 1880 68 710 739 0 701 719 750 81
 1 742 1830 54 343 0 747 739 748 746 82 3 741 15 6 2 14 343 916 747 ?749 754 139
 24 755 +0 0 749 754 118 81 1 747 1862 68 343 742 0 752 753 751 81 1 748 1831 54
 361 0 758 742 760 756 82 3 746 15 7 2 14 361 301 758 ?759 683 354 24 757 -0 0 7
59 683 118 81 1 758 1848 68 361 748 0 761 765 763 81 1 760 1832 54 762 0 764 748
 766 770 82 3 756 15 8 2 14 762 1214 764 ?768 749 767 24 769 +0 0 768 749 118 81
 1 764 1864 68 762 760 0 753 771 775 81 1 766 1833 54 772 0 773 760 774 777 82 3
 770 15 9 2 14 772 1222 773 ?780 779 776 24 778 +0 0 780 779 118 81 1 773 1868 6
8 772 766 0 781 782 784 81 1 774 1834 54 355 0 783 766 785 788 82 3 777 15 10 2
 14 355 904 783 ?754 686 129 24 787 -0 0 754 686 118 81 1 783 1860 68 355 774 0
 786 752 790 81 1 785 1835 54 754 0 752 774 789 795 82 3 788 15 11 2 14 754 912
 752 ?343 355 792 24 793 +0 0 343 355 118 81 1 752 1861 68 754 785 0 783 747 791
 81 1 789 1836 54 794 0 799 785 800 797 82 3 795 15 12 2 14 794 323 799 ?694 798
 796 24 803 +0 0 694 798 118 81 1 799 1845 68 794 789 0 805 801 804 81 1 800 183
7 54 113 0 802 789 0 806 82 3 797 15 13 2 14 113 1143 802 ?810 0 680 24 808 +810
 807 810 0 118 81 1 802 1841 68 113 800 0 0 809 811 82 3 806 15 14 2 81 1 809 18
42 68 810 815 0 802 813 812 83 3 811 .768627450980392 .886274509803922 .95294117
6470588 14 810 1132 809 ?814 113 816 24 808 +814 113 814 113 118 81 1 815 1537 5
4 810 0 809 820 817 818 81 1 813 1843 68 814 817 0 809 805 819 83 3 812 .7686274
50980392 .886274509803922 .952941176470588 14 814 1125 813 ?798 810 822 24 808 +
798 810 798 810 118 81 1 817 1538 54 814 0 813 815 386 825 81 1 805 1844 68 798
 824 0 813 799 821 83 3 819 .768627450980392 .886274509803922 .952941176470588 1
4 798 1114 805 ?794 814 823 24 808 +807 814 794 814 118 81 1 824 1535 54 798 0 8
05 532 820 826 83 3 821 .768627450980392 .886274509803922 .952941176470588 81 1
 532 1533 54 531 0 0 519 824 827 81 1 820 1536 54 807 0 829 824 815 828 82 3 826
 14 20 2 14 807 1 829 ?830 691 833 24 808 +113 798 830 691 118 81 1 829 1857 68
 807 820 0 832 831 835 82 3 828 14 21 2 81 1 832 1856 68 691 336 0 834 829 840 8
1 1 831 1858 68 830 837 0 829 786 838 83 3 835 .768627450980392 .886274509803922
 .952941176470588 14 830 168 831 ?686 807 836 24 839 -0 0 686 807 118 81 1 837 1
518 54 830 0 831 844 509 845 81 1 786 1859 68 686 842 0 831 783 843 83 3 838 .76
8627450980392 .886274509803922 .952941176470588 14 686 619 786 ?355 830 689 24 8
41 +0 0 355 830 118 81 1 842 621 54 686 0 786 848 850 846 83 3 843 .768627450980
392 .886274509803922 .952941176470588 81 1 848 446 54 849 0 847 851 842 855 81 1
 850 685 54 4 0 853 842 305 852 82 3 846 8 2 2 81 1 853 1838 74 4 850 109 0 0 85
4 81 1 305 686 54 299 0 0 850 307 856 82 3 852 7 0 3 81 1 307 687 54 306 0 0 305
 308 860 82 3 856 9 0 0 81 1 308 688 54 303 0 0 307 328 858 82 3 860 9 1 0 81 1
 328 689 54 329 0 0 308 376 857 82 3 858 9 2 0 81 1 376 690 54 371 0 0 328 385 8
59 82 3 857 9 3 0 81 1 385 691 54 382 0 0 376 374 861 82 3 859 9 0 1 81 1 374 69
2 54 360 0 0 385 380 865 82 3 861 9 1 1 81 1 380 693 54 379 0 0 374 467 862 82 3
 865 9 2 1 81 1 467 694 54 463 0 0 380 456 863 82 3 862 9 3 1 81 1 456 695 54 42
4 0 0 467 464 864 82 3 863 9 4 1 81 1 464 696 54 462 0 0 456 459 867 82 3 864 9
 5 1 81 1 459 697 54 457 0 0 464 870 869 82 3 867 9 6 1 81 1 870 699 54 694 0 80
1 459 866 868 82 3 869 9 7 1 14 694 305 801 ?683 794 692 24 871 +0 0 683 794 118
 81 1 801 1846 68 694 870 0 799 761 872 81 1 866 701 54 683 0 761 870 336 874 82
 3 868 9 1 2 14 683 303 761 ?361 694 682 24 873 -0 0 361 694 118 81 1 761 1847 6
8 683 866 0 801 758 875 81 1 336 702 54 691 0 832 866 337 878 82 3 874 9 3 2 14
 691 299 832 ?807 877 688 24 876 +0 0 807 877 118 82 3 878 9 4 2 14 877 319 834
 ?691 880 879 24 885 +0 0 691 880 118 50 255 876 330 0 691 839 757 0 +.192135 .0
267255 .013 -1 0 0 0 0 1 13 118 114 0 0 0 0 0 0 29 113 50 839 269 0 830 808 876
 0 +.09607 .026725 0 0 0 1 1 0 0 50 757 331 0 361 876 873 0 +.0960675 .053451 .0
13 0 1 0 0 0 1 50 873 332 0 683 757 871 0 +0 .0267255 .013 -1 0 0 0 0 1 50 871 3
33 0 694 873 882 0 +.0960675 0 .013 0 1 0 0 0 1 51 882 334 0 849 871 883 0 -.197
14 -.005 .013 0 0 -1 .003 -1 0 0 14 849 307 847 ?881 884 889 24 882 +0 0 881 884
 118 51 883 335 0 881 882 890 0 -.19714 .05845 .013 0 0 -1 .003 -1 0 0 14 881 31
1 887 ?880 849 888 24 883 +0 0 880 849 118 51 890 336 0 880 883 885 0 --.005 -.0
05 .013 0 0 -1 .003 -1 0 0 14 880 315 886 ?877 881 893 24 890 +0 0 877 881 118 5
1 885 337 0 877 890 803 0 --.005 .05845 .013 0 0 -1 .003 -1 0 0 50 803 338 0 794
 885 895 0 +.09607 .06345 .013 0 1 0 0 0 1 50 895 339 0 884 803 891 0 +.20214 .0
26725 .013 -1 0 0 0 0 1 14 884 325 894 ?849 892 896 24 895 -0 0 849 892 118 50 8
91 340 0 892 895 900 0 +.09607 -.01 .013 0 1 0 0 0 1 14 892 327 898 ?884 759 897
 24 891 -0 0 884 759 118 50 900 341 0 759 891 899 0 +-.01 .026725 .013 -1 -18894
19715155135e-31 0 1889419715155135e-31 -1 0 14 759 329 765 ?892 361 901 24 900 +
0 0 892 361 118 51 899 1328 0 729 900 905 0 +.20014 -.008 .013 0 0 -1 .002 -1 0
 0 14 729 1236 732 ?111 903 902 24 899 +0 0 111 903 118 53 255 905 1327 0 903 89
9 904 0 +.20014 -.008 .011 .002 0 -1734723475976805e-30 1 0 -1 -1734723475976805
e-30 14 903 1234 906 ?729 910 907 24 905 +0 0 729 910 118 51 904 1326 0 910 905
 908 0 +.20014 .026725 .011 0 -1 0 .002 0 0 -1 14 910 1232 909 ?903 912 915 24 9
04 +0 0 903 912 118 51 908 1325 0 912 904 914 0 +.09607 -.008 .011 -1 0 0 .002 0
 0 1 14 912 1230 911 ?910 913 916 24 908 +0 0 910 913 118 53 914 1324 0 913 908
 917 0 +.20014 .06145 .011 .002 0 1 0 0 0 1 14 913 1228 919 ?912 918 920 24 914
 +0 0 912 918 118 53 917 1323 0 918 914 923 0 +-.008 -.008 .011 .002 -1 0 0 0 0
 1 14 918 1226 922 ?913 780 921 24 917 +0 0 913 780 118 51 923 1322 0 780 917 77
8 0 +.20014 .06145 .013 0 0 1 .002 1 0 0 14 780 1224 782 ?918 772 925 24 923 +0
 0 918 772 118 51 778 1321 0 772 923 924 0 +.09607 .06145 .011 1 0 0 .002 0 0 -1
 51 924 1320 0 779 778 930 0 +-.008 .026725 .011 -1889419715155135e-31 1 0 .002
 -1 -1889419715155135e-31 0 14 779 1220 781 ?772 927 928 24 924 +0 0 772 927 118
 51 930 1319 0 927 924 926 0 +-.008 -.008 .013 0 0 1 .002 1 0 0 14 927 1218 929
 ?779 768 934 24 930 +0 0 779 768 118 53 926 1318 0 768 930 769 0 +-.008 .06145
 .011 .002 0 1 0 0 0 1 14 768 1216 771 ?927 762 935 24 926 +0 0 927 762 118 51 7
69 1317 0 762 926 932 0 +.09607 .06145 .011 1 0 0 .002 0 0 -1 51 932 1316 0 749
 769 736 0 +-.008 .06145 .013 0 0 -1 .002 -1 0 0 14 749 1212 753 ?762 343 933 24
 932 +0 0 762 343 118 51 736 1730 0 723 932 724 0 +.082818 .026725 .011 0 -1 0 .
002 0 0 -1 53 724 1729 0 717 736 744 0 +.082818 .06145 .011 .002 -1 0 0 0 0 1 51
 744 1728 0 710 724 706 0 +.082818 .06145 .013 0 0 1 .002 1 0 0 51 706 1727 0 70
3 744 740 0 +.09607 .06145 .0035 1 0 0 .002 0 0 -1 51 740 1726 0 707 706 115 0 +
.060318 .06145 .0055 0 0 -1 .002 -1 0 0 53 115 1725 0 672 740 25 0 +.060318 .061
45 .011 .002 -1 0 0 0 0 1 81 1 753 1863 68 749 931 0 747 764 938 15 933 1213 0 9
40 749 0 17 940 0 933 936 939 276 274 485 0 0 -17 936 0 933 937 940 187 278 558
 0 610 -17 939 0 933 940 937 275 201 542 0 0 -17 274 0 836 437 428 275 940 485 0
 941 +15 836 183 0 945 830 943 17 437 0 836 294 274 268 941 434 0 942 +17 428 0
 836 274 284 276 944 390 0 940 +17 941 0 796 201 271 275 437 434 0 939 -15 796 7
66 0 144 794 0 17 201 0 796 543 941 200 939 542 0 946 +17 271 0 796 941 198 268
 950 549 0 437 +17 198 0 796 271 160 196 948 550 0 950 +17 950 0 925 947 942 196
 271 549 0 949 -15 925 1225 0 942 780 0 17 947 0 925 951 950 289 586 583 0 955 -
17 942 0 925 950 951 268 294 481 0 0 -17 949 0 776 948 952 196 589 590 0 586 -15
 776 1223 0 948 772 0 17 948 0 776 190 949 158 198 550 0 953 -17 952 0 776 949 9
54 205 231 531 0 589 -17 589 0 920 955 586 205 949 590 0 576 +17 586 0 920 589 9
55 196 947 583 0 0 +15 920 1229 0 586 913 0 17 955 0 920 586 589 289 576 571 0 9
57 -17 576 0 915 960 957 205 955 571 0 0 +17 957 0 915 576 959 289 287 472 0 0 -
15 915 1233 0 956 910 0 17 959 0 915 957 958 281 569 567 0 961 -17 287 0 896 478
 293 281 957 472 0 959 +15 896 324 0 287 884 0 17 478 0 896 431 287 300 962 474
 0 945 +17 293 0 896 287 431 289 951 468 0 947 +17 431 0 896 293 478 292 945 435
 0 951 +17 951 0 925 942 947 292 293 468 0 0 -17 945 0 836 261 294 300 431 435 0
 0 -17 261 0 836 964 945 256 296 486 0 429 +17 294 0 836 945 437 292 942 481 0 4
31 +17 964 0 836 284 261 264 429 427 0 963 -17 296 0 902 962 965 300 261 486 0 4
78 -17 429 0 897 254 270 256 964 427 0 965 +15 897 326 0 429 892 0 17 254 0 897
 258 429 252 965 500 0 968 +17 270 0 897 429 258 264 967 491 0 964 +17 965 0 902
 296 570 256 254 500 0 0 -15 902 1237 0 570 729 0 17 570 0 902 965 962 252 961 5
61 0 0 +17 962 0 902 570 296 281 478 474 0 0 -17 961 0 907 569 573 281 570 561 0
 962 -15 907 1235 0 569 903 0 17 569 0 907 573 961 218 959 567 0 0 +17 573 0 907
 961 569 252 966 574 0 570 +17 966 0 916 970 968 218 573 574 0 569 -15 916 1231
 0 585 912 0 17 970 0 916 969 966 217 219 499 0 0 -17 968 0 916 966 585 252 258
 492 0 573 -17 585 0 916 968 975 259 972 579 0 0 +17 258 0 897 270 254 259 968 4
92 0 967 +17 967 0 934 973 963 259 270 491 0 599 -15 934 1219 0 963 927 0 17 973
 0 934 971 967 195 599 594 0 593 -17 963 0 934 967 971 264 284 476 0 0 -17 599 0
 921 972 593 259 973 594 0 585 +15 921 1227 0 593 918 0 17 972 0 921 593 599 215
 585 579 0 975 -17 593 0 921 599 972 195 974 591 0 0 +17 974 0 928 979 980 215 5
93 591 0 972 -15 928 1221 0 602 779 0 17 979 0 928 977 974 238 211 506 0 0 -17 9
80 0 928 974 602 195 192 556 0 973 -17 602 0 928 980 978 187 976 596 0 0 +17 192
 0 901 278 193 187 980 556 0 936 +15 901 328 0 192 759 0 17 278 0 901 944 192 27
6 936 558 0 428 +17 193 0 901 192 944 195 971 554 0 980 +17 944 0 901 193 278 27
9 428 390 0 971 -17 971 0 934 963 973 279 193 554 0 0 -17 978 0 928 602 977 208
 247 515 0 0 -17 976 0 935 608 610 208 602 596 0 978 -15 935 1217 0 608 768 0 17
 608 0 935 610 976 200 983 604 0 0 +17 610 0 935 976 608 187 937 347 0 602 +17 9
37 0 933 939 936 200 610 347 0 608 -17 983 0 767 985 946 208 608 604 0 976 -15 7
67 1215 0 678 762 0 17 985 0 767 678 983 246 214 516 0 0 -17 946 0 767 983 155 2
00 543 539 0 937 -17 155 0 767 946 678 152 675 124 0 543 +17 543 0 796 151 201 1
52 946 539 0 666 +17 151 0 796 144 543 147 670 632 0 981 +17 144 0 796 160 151 1
36 984 631 0 982 +17 670 0 668 662 981 152 151 632 0 0 -17 981 0 668 670 135 147
 659 658 0 984 -15 668 1679 0 662 707 0 17 135 0 668 981 662 121 123 133 0 659 -
17 659 0 708 142 984 121 981 658 0 0 +17 984 0 708 659 982 147 144 631 0 0 -15 7
08 1681 0 659 703 0 17 982 0 708 984 142 136 657 655 0 986 -17 142 0 708 982 659
 161 119 26 0 657 -17 657 0 745 990 986 161 982 655 0 0 +17 986 0 745 657 953 13
6 160 640 0 0 -15 745 1683 0 953 710 0 17 953 0 745 986 990 158 651 650 0 988 -1
7 160 0 796 198 144 158 986 640 0 948 +17 990 0 745 953 657 159 169 625 0 651 -1
7 651 0 722 987 988 159 953 650 0 648 +17 988 0 722 651 987 158 190 628 0 0 -15
 722 1685 0 988 717 0 17 987 0 722 988 651 182 648 646 0 693 -17 190 0 776 954 9
48 182 988 628 0 537 +17 954 0 776 952 190 228 537 536 0 0 -17 537 0 680 614 989
 182 954 536 0 987 +17 989 0 680 537 234 228 991 400 0 401 -17 234 0 680 989 995
 235 956 530 0 991 +17 991 0 888 401 401 235 989 400 0 993 +16 400 1092 992 ?991
 396 392 393 396 396 4 17 401 0 888 991 991 228 993 396 0 954 +15 888 310 0 401
 881 994 17 993 0 816 207 231 235 401 396 0 960 -15 816 1130 0 207 810 0 17 207
 0 816 231 993 205 960 526 0 952 +17 231 0 816 993 207 228 952 531 0 989 +17 960
 0 915 956 576 235 207 526 0 0 -17 956 0 915 958 960 222 234 530 0 0 -17 958 0 9
15 959 956 218 230 521 0 966 -17 230 0 822 996 219 222 958 521 0 1000 +15 822 80
3 0 219 814 0 17 996 0 822 219 230 217 1000 405 0 404 -17 219 0 822 230 996 218
 970 499 0 958 +17 1000 0 889 404 404 222 996 405 0 995 +15 889 306 0 404 849 99
7 17 404 0 889 1000 1000 217 995 403 0 970 +16 405 1098 998 ?1000 403 396 399 40
3 403 4 17 995 0 680 234 223 222 404 403 0 956 -17 223 0 680 995 999 217 969 502
 0 996 +17 999 0 680 223 244 237 1002 394 0 398 -17 969 0 916 975 970 237 223 50
2 0 0 -17 975 0 916 585 969 215 236 507 0 0 -17 236 0 833 1005 211 237 975 507 0
 999 +15 833 8 0 1005 807 0 17 1005 0 833 211 236 238 398 392 0 979 -17 211 0 83
3 236 1005 215 979 506 0 974 +17 398 0 893 1002 1002 237 1005 392 0 969 +15 893
 314 0 398 880 1004 17 1002 0 893 398 398 238 999 394 0 1005 +16 394 1086 1001 ?
1002 392 387 388 392 392 4 81 1 1001 1543 54 394 0 0 391 397 1003 81 1 391 1542
 54 392 0 0 1006 1001 1007 81 1 397 1544 54 396 0 0 1001 992 1009 82 3 1003 14 5
5 1 81 1 992 1545 54 400 0 0 397 998 1008 82 3 1009 14 56 1 81 1 998 1546 54 405
 0 0 992 140 1010 82 3 1008 14 57 1 81 1 140 1547 54 403 0 0 998 134 1013 82 3 1
010 14 58 1 82 3 1013 14 59 1 81 1 1006 1541 54 395 0 0 386 391 1012 82 3 1007 1
4 54 1 16 395 1080 1006 ?1011 387 451 381 387 387 4 81 1 386 1540 54 387 0 0 817
 1006 1015 82 3 1012 14 53 1 82 3 1015 14 52 1 17 1011 0 879 389 389 246 1014 39
5 0 1020 +15 879 318 0 389 877 1017 17 389 0 879 1011 1011 243 1020 387 0 977 +1
7 1014 0 680 244 255 243 1011 395 0 389 -17 1020 0 823 214 247 246 389 387 0 985
 -15 823 7 0 1020 798 0 17 214 0 823 247 1020 208 985 516 0 983 +17 247 0 823 10
20 214 243 978 515 0 1014 +17 244 0 680 999 1014 238 977 512 0 1002 +17 255 0 68
0 1014 176 246 678 525 0 1011 +17 678 0 767 155 985 174 255 525 0 673 -17 977 0
 928 978 979 243 244 512 0 0 -15 1017 320 0 1018 877 0 17 1018 0 1017 1018 1018
 0 445 438 0 0 -17 445 0 943 445 445 0 1018 438 0 0 +15 943 184 0 445 830 1016 1
5 1016 185 0 446 830 1019 17 446 0 1016 446 446 0 1024 441 0 0 +15 1019 186 0 44
9 830 1025 17 449 0 1019 449 449 0 1022 450 0 0 +15 1025 187 0 452 830 0 17 452
 0 1025 452 452 0 1023 451 0 0 +17 1023 0 997 1023 1023 0 452 451 0 0 -15 997 30
8 0 1023 849 0 17 1022 0 994 1022 1022 0 449 450 0 0 -15 994 312 0 1022 881 0 17
 1024 0 1004 1024 1024 0 446 441 0 0 -15 1004 316 0 1024 880 0 17 648 0 733 1021
 693 159 987 646 0 0 +17 693 0 733 648 183 182 614 612 0 0 -15 733 1687 0 648 72
3 0 17 183 0 733 693 1021 181 166 618 0 614 -17 1021 0 733 183 648 170 163 622 0
 0 -17 166 0 354 349 359 170 183 618 0 365 +17 365 0 792 163 335 170 349 358 0 1
021 +15 792 915 0 365 754 0 17 163 0 792 169 365 159 1021 622 0 990 +17 335 0 79
2 365 169 332 145 362 0 339 +17 169 0 792 335 163 161 990 625 0 145 +17 145 0 13
9 119 339 161 335 362 0 142 -17 284 0 836 428 964 279 963 476 0 944 +81 1 931 15
08 54 749 0 753 1028 1030 1026 83 3 938 .768627450980392 .886274509803922 .95294
1176470588 81 1 1028 1507 54 729 0 732 1029 931 1027 81 1 1030 1509 54 780 0 782
 931 1031 1035 82 3 1026 14 6 2 81 1 782 1869 68 780 1030 0 773 922 1033 81 1 10
31 1510 54 912 0 911 1030 1032 1034 82 3 1035 14 7 2 81 1 911 1872 68 912 1031 0
 919 909 1036 81 1 1032 1511 54 779 0 781 1031 1040 1038 82 3 1034 14 8 2 81 1 7
81 1867 68 779 1032 0 929 773 1037 81 1 1040 1512 54 910 0 909 1032 1039 1041 82
 3 1038 14 9 2 81 1 909 1873 68 910 1040 0 911 906 1045 81 1 1039 1515 54 892 0
 898 1040 1042 1043 82 3 1041 14 10 2 81 1 898 1850 68 892 1039 0 765 894 1044 8
1 1 1042 1516 54 759 0 765 1039 844 1047 82 3 1043 14 13 2 81 1 765 1849 68 759
 1042 0 758 898 1050 81 1 844 1517 54 884 0 894 1042 837 1049 82 3 1047 14 14 2
 81 1 894 1851 68 884 844 0 898 847 1046 82 3 1049 14 15 2 81 1 847 1852 68 849
 848 0 894 887 1048 83 3 1046 .768627450980392 .886274509803922 .952941176470588
 81 1 887 1853 68 881 851 0 847 886 1051 83 3 1048 .768627450980392 .88627450980
3922 .952941176470588 81 1 851 445 54 881 0 887 1052 848 1054 81 1 886 1854 68 8
80 1052 0 887 834 1053 83 3 1051 .768627450980392 .886274509803922 .952941176470
588 81 1 1052 444 54 880 0 886 1055 851 1058 81 1 834 1855 68 877 1055 0 886 832
 1057 83 3 1053 .768627450980392 .886274509803922 .952941176470588 81 1 1055 443
 54 877 0 834 453 1052 1056 83 3 1057 .768627450980392 .886274509803922 .9529411
76470588 81 1 453 431 54 451 0 0 447 1055 1060 82 3 1056 7 10 2 81 1 447 429 54
 450 0 0 442 453 1059 82 3 1060 7 30 1 81 1 442 427 54 441 0 0 443 447 1065 82 3
 1059 7 28 1 81 1 443 425 54 438 0 0 421 442 1062 82 3 1065 7 26 1 81 1 421 416
 54 416 0 0 415 443 1063 82 3 1062 7 24 1 81 1 415 414 54 409 0 0 408 421 1061 8
2 3 1063 7 15 1 81 1 408 410 54 406 0 0 318 415 1064 82 3 1061 7 13 1 81 1 318 3
92 54 316 0 0 325 408 1069 82 3 1064 7 9 1 81 1 325 390 54 319 0 0 312 318 1070
 82 3 1069 7 7 0 81 1 312 388 54 315 0 0 327 325 1067 82 3 1070 7 5 0 81 1 327 3
86 54 323 0 0 0 312 1068 82 3 1067 7 3 0 82 3 1068 7 1 0 82 3 1058 7 11 2 82 3 1
054 7 12 2 83 3 1050 .768627450980392 .886274509803922 .952941176470588 83 3 104
4 .768627450980392 .886274509803922 .952941176470588 81 1 906 1874 68 903 1066 0
 909 732 1073 83 3 1045 .768627450980392 .886274509803922 .952941176470588 81 1
 1066 1503 54 903 0 906 1075 1071 1074 81 1 732 1875 68 729 1028 0 906 720 1072
 83 3 1073 .768627450980392 .886274509803922 .952941176470588 83 3 1072 .7686274
50980392 .886274509803922 .952941176470588 81 1 1075 1502 54 918 0 922 433 1066
 1076 81 1 1071 1504 54 768 0 771 1066 1080 1078 82 3 1074 14 1 2 81 1 771 1865
 68 768 1071 0 764 929 1077 81 1 1080 1505 54 913 0 919 1071 1029 1079 82 3 1078
 14 2 2 81 1 919 1871 68 913 1080 0 922 911 1081 81 1 1029 1506 54 927 0 929 108
0 1028 1085 82 3 1079 14 3 2 81 1 929 1866 68 927 1029 0 771 781 1083 82 3 1085
 14 4 2 83 3 1083 .768627450980392 .886274509803922 .952941176470588 81 1 922 18
70 68 918 1075 0 782 919 1082 83 3 1081 .768627450980392 .886274509803922 .95294
1176470588 83 3 1082 .768627450980392 .886274509803922 .952941176470588 83 3 107
7 .768627450980392 .886274509803922 .952941176470588 81 1 433 1497 54 435 0 0 42
5 1075 1084 82 3 1076 14 0 2 81 1 425 1496 54 390 0 0 440 433 1086 82 3 1084 14
 34 1 81 1 440 1495 54 434 0 0 430 425 1090 82 3 1086 14 33 1 81 1 430 1494 54 4
27 0 0 475 440 1087 82 3 1090 14 32 1 81 1 475 1489 54 472 0 0 559 430 1088 82 3
 1087 14 31 1 81 1 559 1488 54 556 0 0 496 475 1089 82 3 1088 14 26 1 81 1 496 1
487 54 492 0 0 555 559 1092 82 3 1089 14 25 1 81 1 555 1486 54 549 0 0 490 496 1
095 82 3 1092 14 24 1 81 1 490 1485 54 481 0 0 473 555 1094 82 3 1095 14 23 1 81
 1 473 1484 54 468 0 0 546 490 1091 82 3 1094 14 22 1 81 1 546 1483 54 542 0 0 4
83 473 1093 82 3 1091 14 21 1 81 1 483 1482 54 485 0 0 563 546 1096 82 3 1093 14
 20 1 81 1 563 1481 54 558 0 0 487 483 1097 82 3 1096 14 19 1 81 1 487 1480 54 4
86 0 0 477 563 1099 82 3 1097 14 18 1 81 1 477 1479 54 474 0 0 497 487 1098 82 3
 1099 14 17 1 81 1 497 1478 54 500 0 0 484 477 1100 82 3 1098 14 16 1 81 1 484 1
477 54 476 0 0 553 497 1103 82 3 1100 14 15 1 81 1 553 1476 54 554 0 0 493 484 1
102 82 3 1103 14 14 1 81 1 493 1475 54 491 0 0 587 553 1101 82 3 1102 14 13 1 81
 1 587 1474 54 590 0 0 580 493 1105 82 3 1101 14 12 1 81 1 580 1473 54 571 0 0 5
84 587 1104 82 3 1105 14 11 1 81 1 584 1472 54 583 0 0 605 580 1110 82 3 1104 14
 10 1 81 1 605 1471 54 604 0 0 601 584 1107 82 3 1110 14 9 1 81 1 601 1470 54 59
6 0 0 606 605 1108 82 3 1107 14 8 1 81 1 606 1469 54 347 0 0 566 601 1106 82 3 1
108 14 7 1 81 1 566 1468 54 567 0 0 572 606 1109 82 3 1106 14 6 1 81 1 572 1467
 54 574 0 0 564 566 1114 82 3 1109 14 5 1 81 1 564 1466 54 561 0 0 592 572 1115
 82 3 1114 14 4 1 81 1 592 1465 54 591 0 0 581 564 1112 82 3 1115 14 3 1 81 1 58
1 1464 54 579 0 0 600 592 1113 82 3 1112 14 2 1 81 1 600 1463 54 594 0 0 229 581
 1111 82 3 1113 14 1 1 81 1 229 1458 54 228 0 0 249 600 1118 82 3 1111 14 0 1 81
 1 249 1457 54 246 0 0 226 229 1120 82 3 1118 14 27 0 81 1 226 1456 54 222 0 0 2
33 249 1116 82 3 1120 14 26 0 81 1 233 1455 54 235 0 0 242 226 1119 82 3 1116 14
 25 0 81 1 242 1454 54 238 0 0 248 233 1117 82 3 1119 14 24 0 81 1 248 1453 54 2
43 0 0 225 242 1121 82 3 1117 14 23 0 81 1 225 1452 54 217 0 0 239 248 1125 82 3
 1121 14 22 0 81 1 239 1451 54 237 0 0 269 225 1123 82 3 1125 14 21 0 81 1 269 1
450 54 268 0 0 295 239 1122 82 3 1123 14 20 0 81 1 295 1449 54 292 0 0 272 269 1
124 82 3 1122 14 19 0 81 1 272 1448 54 275 0 0 277 295 1126 82 3 1124 14 18 0 81
 1 277 1447 54 276 0 0 298 272 1130 82 3 1126 14 17 0 81 1 298 1446 54 300 0 0 2
65 277 1128 82 3 1130 14 16 0 81 1 265 1445 54 256 0 0 285 298 1127 82 3 1128 14
 15 0 81 1 285 1444 54 279 0 0 266 265 1129 82 3 1127 14 14 0 81 1 266 1443 54 2
64 0 0 210 285 1131 82 3 1129 14 13 0 81 1 210 1442 54 205 0 0 199 266 1135 82 3
 1131 14 12 0 81 1 199 1441 54 196 0 0 290 210 1132 82 3 1135 14 11 0 81 1 290 1
440 54 289 0 0 209 199 1133 82 3 1132 14 10 0 81 1 209 1439 54 208 0 0 202 290 1
134 82 3 1133 14 9 0 81 1 202 1438 54 200 0 0 189 209 1137 82 3 1134 14 8 0 81 1
 189 1437 54 187 0 0 216 202 1140 82 3 1137 14 7 0 81 1 216 1436 54 218 0 0 286
 189 1139 82 3 1140 14 6 0 81 1 286 1435 54 281 0 0 251 216 1136 82 3 1139 14 5
 0 81 1 251 1434 54 252 0 0 213 286 1138 82 3 1136 14 4 0 81 1 213 1433 54 215 0
 0 191 251 1141 82 3 1138 14 3 0 81 1 191 1432 54 195 0 0 257 213 1142 82 3 1141
 14 2 0 81 1 257 1431 54 259 0 0 363 191 1144 82 3 1142 14 1 0 82 3 1144 14 0 0
 83 3 1037 .768627450980392 .886274509803922 .952941176470588 83 3 1036 .7686274
50980392 .886274509803922 .952941176470588 83 3 1033 .768627450980392 .886274509
803922 .952941176470588 82 3 1027 14 5 2 50 808 3 0 807 841 839 0 +.09607 .02672
5 .013 0 0 1 1 0 0 50 841 634 0 686 787 808 0 +.09607 .026725 .003 0 0 1 1 0 0 5
0 787 927 0 355 793 841 0 +.062318 .0584505 .0055 -1 0 0 0 0 1 50 793 929 0 754
 755 787 0 +.080818 .0584505 .0055 -1 0 0 0 0 1 50 755 931 0 343 0 793 0 +.09607
 .026725 .0055 0 0 1 1 0 0 83 3 875 .768627450980392 .886274509803922 .952941176
470588 83 3 872 .768627450980392 .886274509803922 .952941176470588 81 1 109 1839
 80 4 853 21 0 0 1143 98 6 854 80 97 114 116 32 49 84 6 1143 Part 182 3 855 7 13
 2 81 1 509 1522 54 507 0 0 837 505 1145 82 3 845 14 16 2 81 1 505 1523 54 499 0
 0 509 504 1148 82 3 1145 14 39 1 81 1 504 1524 54 502 0 0 505 511 1147 82 3 114
8 14 40 1 81 1 511 1525 54 506 0 0 504 517 1146 82 3 1147 14 41 1 81 1 517 1526
 54 515 0 0 511 513 1150 82 3 1146 14 42 1 81 1 513 1527 54 512 0 0 517 529 1149
 82 3 1150 14 43 1 81 1 529 1528 54 521 0 0 513 535 1155 82 3 1149 14 44 1 81 1
 535 1529 54 526 0 0 529 528 1152 82 3 1155 14 45 1 81 1 528 1530 54 530 0 0 535
 519 1153 82 3 1152 14 46 1 81 1 519 1531 54 516 0 0 528 532 1151 82 3 1153 14 4
7 1 82 3 1151 14 48 1 83 3 840 .768627450980392 .886274509803922 .95294117647058
8 82 3 827 14 50 1 82 3 825 14 23 2 82 3 818 14 22 2 83 3 804 .768627450980392 .
886274509803922 .952941176470588 83 3 791 .768627450980392 .886274509803922 .952
941176470588 83 3 790 .768627450980392 .886274509803922 .952941176470588 83 3 78
4 .768627450980392 .886274509803922 .952941176470588 83 3 775 .768627450980392 .
886274509803922 .952941176470588 83 3 763 .768627450980392 .886274509803922 .952
941176470588 83 3 751 .768627450980392 .886274509803922 .952941176470588 83 3 75
0 .768627450980392 .886274509803922 .952941176470588 83 3 743 .768627450980392 .
886274509803922 .952941176470588 83 3 737 .768627450980392 .886274509803922 .952
941176470588 83 3 735 .768627450980392 .886274509803922 .952941176470588 83 3 73
0 .768627450980392 .886274509803922 .952941176470588 83 3 718 .768627450980392 .
886274509803922 .952941176470588 83 3 711 .768627450980392 .886274509803922 .952
941176470588 81 1 370 1816 54 362 0 0 350 420 1154 82 3 697 15 24 1 81 1 350 181
5 54 345 0 0 369 370 1159 82 3 1154 15 23 1 81 1 369 1814 54 358 0 0 356 350 116
0 82 3 1159 15 22 1 81 1 356 1813 54 353 0 0 638 369 1157 82 3 1160 15 21 1 81 1
 638 1812 54 640 0 0 624 356 1158 82 3 1157 15 20 1 81 1 624 1811 54 625 0 0 636
 638 1156 82 3 1158 15 19 1 81 1 636 1810 54 632 0 0 642 624 1163 82 3 1156 15 1
8 1 81 1 642 1809 54 133 0 0 611 636 1165 82 3 1163 15 17 1 81 1 611 1808 54 612
 0 0 630 642 1161 82 3 1165 15 16 1 81 1 630 1807 54 622 0 0 615 611 1164 82 3 1
161 15 15 1 81 1 615 1806 54 562 0 0 644 630 1162 82 3 1164 15 14 1 81 1 644 180
5 54 351 0 0 629 615 1166 82 3 1162 15 13 1 81 1 629 1804 54 628 0 0 652 644 117
0 82 3 1166 15 12 1 81 1 652 1803 54 650 0 0 649 629 1168 82 3 1170 15 11 1 81 1
 649 1802 54 646 0 0 641 652 1167 82 3 1168 15 10 1 81 1 641 1801 54 124 0 0 665
 649 1169 82 3 1167 15 9 1 82 3 1169 15 8 1 17 469 0 682 310 679 299 330 463 0 6
84 +81 1 623 1798 54 618 0 0 617 663 1171 82 3 667 15 6 1 81 1 617 1797 54 619 0
 0 633 623 1175 82 3 1171 15 5 1 81 1 633 1796 54 631 0 0 660 617 1173 82 3 1175
 15 4 1 81 1 660 1795 54 655 0 0 656 633 1172 82 3 1173 15 3 1 81 1 656 1794 54
 658 0 0 116 660 1174 82 3 1172 15 2 1 81 1 116 1793 54 26 0 0 156 656 1176 82 3
 1174 15 1 1 81 1 156 1792 54 158 0 0 186 116 1180 82 3 1176 15 0 1 81 1 186 179
1 54 182 0 0 162 156 1177 82 3 1180 15 13 0 81 1 162 1790 54 159 0 0 153 186 117
8 82 3 1177 15 12 0 81 1 153 1789 54 152 0 0 130 162 1179 82 3 1178 15 11 0 81 1
 130 1788 54 174 0 0 122 153 1182 82 3 1179 15 10 0 82 3 1182 15 9 0 82 3 661 15
 7 1 81 1 333 961 54 332 0 0 337 363 1185 82 3 366 13 5 1 82 3 1185 13 7 0 82 3
 340 13 5 0 81 1 128 1786 54 181 0 0 168 122 1184 81 1 168 1785 54 170 0 0 177 1
28 1181 82 3 1184 15 7 0 81 1 177 1784 54 180 0 0 171 168 1183 82 3 1181 15 6 0
 81 1 171 1783 54 173 0 0 143 177 1186 82 3 1183 15 5 0 81 1 143 1782 54 136 0 0
 148 171 1187 82 3 1186 15 4 0 81 1 148 1781 54 147 0 0 138 143 1189 82 3 1187 1
5 3 0 81 1 138 1780 54 161 0 0 134 148 1188 82 3 1189 15 2 0 82 3 1188 15 1 0 82
 3 137 15 0 0 82 3 126 15 8 0 19 112 351 0 4 0 29 24 0 S0 74 20 110 5 0 0 800 85
3 109 21 726 0 0 0 0 0 0 0 0 0 0 0 0 0 0 0 83 3 108 .768627450980392 .8862745098
03922 .952941176470588 81 1 14 27 46 3 1190 0 0 0 1193 70 15 0 4 T3 0 0 5 20 1 1
192 1192 13 16 2 0 3 0 1191 0 0 19 1191 51 17 18 0 1191 0 0 0 +-.005 -.005 .0031
 0 0 1 .003 1 0 0 31 18 13 0 20 1195 0 0 +-.005 -.005 .013 0 0 1 1 0 0 .003 19 1
9 1 0 3 0 0 16 0 V0 16 20 9 1194 ?1200 0 1197 18 0 0 3 81 1 1194 22 54 20 0 0 11
98 1196 1199 17 1200 0 0 0 0 0 1204 20 0 0 +16 1197 3 1198 ?1205 20 0 1195 0 0 3
 81 1 1198 21 54 1197 0 0 0 1194 1202 17 1205 0 1203 1205 1205 0 1201 1197 0 0 +
31 1195 6 0 1197 0 18 0 +-.005 -.005 .0031 0 0 1 1 0 0 .003 15 1203 14 0 1205 11
91 1208 17 1201 0 0 0 0 0 1205 1197 0 0 -14 1191 15 1210 ?0 0 1203 16 17 +0 0 0
 0 16 15 1208 16 0 1204 1191 0 17 1204 0 1208 1204 1204 0 1200 20 0 0 -81 1 1210
 28 68 1191 1196 0 0 0 1206 81 1 1196 23 54 1191 0 1210 1194 1209 1207 83 3 1206
 .647058823529412 .647058823529412 .647058823529412 81 1 1209 24 54 3 0 1211 119
6 0 1215 82 3 1207 6 1 2 81 1 1211 25 74 3 1209 1190 0 0 1213 82 3 1215 6 1 3 81
 1 1190 26 80 3 1211 14 0 0 1212 98 9 1213 83 117 114 102 97 99 101 32 50 84 9 1
212 Surface 282 3 1202 6 2 1 82 3 1199 6 3 1 74 20 1192 5 0 0 1209 1211 1190 14
 1210 0 0 0 0 0 0 0 0 0 0 0 0 0 0 0 83 3 1193 .647058823529412 .647058823529412
 .647058823529412 81 1 7 27 46 2 1214 0 0 0 1216 70 8 0 4 T2 0 0 5 20 1 1220 122
0 13 9 2 0 2 0 1218 0 0 12 1218 51 10 18 0 1218 0 0 0 +.19714 -.005 .0031 0 0 1
 .003 1 0 0 31 11 13 0 13 1217 0 0 +.19714 -.005 .013 0 0 1 1 0 0 .003 19 12 1 0
 2 0 0 9 0 V0 16 13 9 1219 ?1221 0 1225 11 0 0 2 81 1 1219 22 54 13 0 0 1222 122
3 1224 17 1221 0 0 0 0 0 1227 13 0 0 +16 1225 3 1222 ?1230 13 0 1217 0 0 2 81 1
 1222 21 54 1225 0 0 0 1219 1229 17 1230 0 1226 1230 1230 0 1228 1225 0 0 +31 12
17 6 0 1225 0 11 0 +.19714 -.005 .0031 0 0 1 1 0 0 .003 15 1226 14 0 1230 1218 1
231 17 1228 0 0 0 0 0 1230 1225 0 0 -14 1218 15 1232 ?0 0 1226 9 10 +0 0 0 0 9 1
5 1231 16 0 1227 1218 0 17 1227 0 1231 1227 1227 0 1221 13 0 0 -81 1 1232 28 68
 1218 1223 0 0 0 1234 81 1 1223 23 54 1218 0 1232 1219 1233 1235 83 3 1234 .9176
47058823529 .917647058823529 .917647058823529 81 1 1233 24 54 2 0 1238 1223 0 12
37 82 3 1235 6 3 2 81 1 1238 25 74 2 1233 1214 0 0 1236 82 3 1237 6 3 3 81 1 121
4 26 80 2 1238 7 0 0 1240 98 9 1236 83 117 114 102 97 99 101 32 52 84 9 1240 Sur
face 482 3 1229 6 6 1 82 3 1224 6 7 1 74 20 1220 5 0 0 1233 1238 1214 7 1232 0 0
 0 0 0 0 0 0 0 0 0 0 0 0 0 83 3 1216 .917647058823529 .917647058823529 .91764705
8823529 1 0 
